<svg xmlns="http://www.w3.org/2000/svg" viewBox="0 0 332.047 900.411"><defs><style>.a{fill:#fff;}</style></defs><g transform="translate(-1317.031 -101.156)"><g transform="translate(1313.684 1040.156) rotate(-90)"><path class="a" d="M39.755,2.2H4.8V222.375H39.755V2.2Z" transform="translate(33.789 5.837)"/><path class="a" d="M107.533,17.3,66.823,149.021,25.9,17.513V130.478L49.132,205.29H84.3l23.232-75.026Z" transform="translate(57.662 22.921)"/><rect class="a" width="34.955" height="220.175" transform="translate(175.212 8.037)"/><path class="a" d="M103.7,2.1h34.955V222.488H103.7Z" transform="translate(145.685 5.723)"/><path class="a" d="M196.924,15.133A51.226,51.226,0,0,0,164.1,0V35.595c8.526,1.492,13,7.034,13.215,17.051l35.381-.639C212.7,37.726,207.368,25.364,196.924,15.133Z" transform="translate(214.022 3.347)"/><path class="a" d="M184.091,98.738c-7.673-1.705-11.51-7.46-11.51-16.838L137.2,86.376c1.066,13.641,6.82,25.364,17.051,35.381,8.739,8.312,18.757,13.215,29.84,14.28Z" transform="translate(183.587 96.01)"/><path class="a" d="M207.863,104.013c-22.593-23.019-33.676-40.07-33.676-51.154,0-7.886,3.41-13,10.231-15.986V0c-29.84,2.131-45.612,19.609-47.317,52.646,0,23.659,11.723,46.891,35.381,69.7,22.593,21.527,33.676,39,33.676,52.22,0,10.018-4.05,15.559-11.936,17.051v37.3a51.285,51.285,0,0,0,33.463-15.133,51.949,51.949,0,0,0,15.559-37.939C243.457,149.838,231.521,125.966,207.863,104.013Z" transform="translate(183.474 3.347)"/><path class="a" d="M269.3,2.1h34.955V222.488H269.3Z" transform="translate(333.047 5.723)"/><rect class="a" width="34.955" height="220.175" transform="translate(676.52 8.037)"/><path class="a" d="M342.413,2.2,342.2,127.1v94.421l.213.853h35.168V2.2Z" transform="translate(415.527 5.837)"/><path class="a" d="M350.864,84.231,325.5,15.6v94.421l25.364,68.631Z" transform="translate(396.632 20.997)"/><path class="a" d="M425.057,193.319c-8.312-1.705-12.362-7.247-12.362-17.051V52.859q0-15.026,12.789-17.264V0a51.515,51.515,0,0,0-32.611,14.92A51.77,51.77,0,0,0,377.1,52.006V176.054a51.326,51.326,0,0,0,15.559,37.726,50.178,50.178,0,0,0,32.4,15.133Z" transform="translate(455.013 3.347)"/><path class="a" d="M417.062,80.881H452.23V45.5H404.7V80.881Z" transform="translate(486.24 54.827)"/><path class="a" d="M417.288,67v33.463c0,10.018-4.263,15.559-12.788,17.264v35.595a49.93,49.93,0,0,0,32.611-15.346c10.231-10.444,15.559-23.019,15.559-37.726V67Z" transform="translate(486.013 79.152)"/><path class="a" d="M436.884,15.133A50.7,50.7,0,0,0,404.7,0V35.595c8.1,1.705,12.362,7.247,12.362,17.051H452.23A51.832,51.832,0,0,0,436.884,15.133Z" transform="translate(486.239 3.347)"/><path class="a" d="M262.024,15.133A51.226,51.226,0,0,0,229.2,0V35.595c8.526,1.492,13,7.034,13.215,17.051l35.381-.639A50.806,50.806,0,0,0,262.024,15.133Z" transform="translate(287.677 3.347)"/><path class="a" d="M249.091,98.738c-7.673-1.705-11.51-7.46-11.51-16.838L202.2,86.376c1.066,13.641,6.821,25.364,17.051,35.381,8.739,8.312,18.756,13.215,29.84,14.28Z" transform="translate(257.129 96.01)"/><path class="a" d="M272.963,104.013c-22.593-23.019-33.676-40.07-33.676-51.154,0-7.886,3.41-13,10.231-15.986V0c-29.84,2.131-45.612,19.609-47.318,52.646,0,23.659,11.723,46.891,35.381,69.7,22.593,21.527,33.676,39,33.676,52.22,0,10.018-4.05,15.559-11.936,17.051v37.3a51.286,51.286,0,0,0,33.463-15.133,51.949,51.949,0,0,0,15.559-37.939C308.344,149.838,296.622,125.966,272.963,104.013Z" transform="translate(257.129 3.347)"/></g><g transform="translate(1200.151 4870.49) rotate(-90)"><path class="a" d="M31.9,153.013H27.782l-8.029,42.633-8.1-42.846H0l14,73.4H25.58L31.9,193.088Z" transform="translate(4348.55 221.378)"/><path class="a" d="M70.022,152.8l-8.1,42.846-8.029-42.633H49.7V192.59L56.166,226.2H67.677l14-73.4Z" transform="translate(4334.164 221.378)"/><path class="a" d="M108.1,152.7h11.653v73.47H108.1Z" transform="translate(4317.26 221.407)"/><rect class="a" width="13.642" height="11.653" transform="translate(4465.221 435.995)"/><path class="a" d="M154.653,223v-8.811h0V152.8H143v73.4h11.653Z" transform="translate(4307.157 221.378)"/><path class="a" d="M208.653,211.817V152.7H197v73.4h11.582V211.817Z" transform="translate(4291.527 221.407)"/><rect class="a" width="13.714" height="11.653" transform="translate(4503.59 435.995)"/><path class="a" d="M262.753,196.883V152.9H251.1v73.4h11.653V196.883Z" transform="translate(4275.867 221.349)"/><path class="a" d="M287.89,158.271c-2.984-3.695-7.319-5.471-13-5.471H272.4v11.653h2.487a5.577,5.577,0,0,1,4.121,1.705,5.692,5.692,0,0,1,1.705,4.121v7.532a5.822,5.822,0,0,1-5.826,5.826H272.4v11.653h2.487c6.182-.355,10.658-2.274,13.358-5.755s4.121-6.963,4.121-10.516v-9.663Q292.26,163.813,287.89,158.271Z" transform="translate(4269.702 221.378)"/><path class="a" d="M330.016,215a6.708,6.708,0,0,1-2.345-1.421,5.763,5.763,0,0,1-1.776-4.121v-41.14a5.535,5.535,0,0,1,1.776-4.192,5.109,5.109,0,0,1,2.345-1.421V150.7a16.9,16.9,0,0,0-10.729,5.045,17.39,17.39,0,0,0-5.187,12.577v41.069a17.113,17.113,0,0,0,5.187,12.506,16.9,16.9,0,0,0,10.729,5.045Z" transform="translate(4257.632 221.986)"/><path class="a" d="M352.242,155.716A17,17,0,0,0,341.3,150.6v11.937a6.724,6.724,0,0,1,2.558,1.492,5.736,5.736,0,0,1,1.705,4.192v41.14a5.8,5.8,0,0,1-1.776,4.192,5.989,5.989,0,0,1-2.487,1.492v11.866a17.24,17.24,0,0,0,10.942-5.045,16.841,16.841,0,0,0,5.187-12.506V168.293A17.273,17.273,0,0,0,352.242,155.716Z" transform="translate(4249.759 222.015)"/><path class="a" d="M409.361,153.013h-3.908l-8.1,42.633-8.1-42.846H377.6l14,73.4H403.18l6.182-32.4Z" transform="translate(4239.251 221.378)"/><path class="a" d="M447.593,152.8l-8.1,42.846-8.029-42.633H427.2V191.88l6.537,34.319h11.511l14-73.4Z" transform="translate(4224.895 221.378)"/><rect class="a" width="11.582" height="73.399" transform="translate(4693.661 374.178)"/><rect class="a" width="11.369" height="11.653" transform="translate(4708.654 435.995)"/><rect class="a" width="11.369" height="11.653" transform="translate(4708.654 405.087)"/><rect class="a" width="11.369" height="11.653" transform="translate(4708.654 374.178)"/><path class="a" d="M572.134,193.23q3.091-.746,6.395-4.263c2.2-2.345,3.482-5.613,3.837-9.877v-9.663c0-3.979-1.563-7.745-4.547-11.3S570.5,152.8,564.887,152.8H562.4v11.653h2.132a5.577,5.577,0,0,1,4.121,1.705,5.692,5.692,0,0,1,1.705,4.121v7.532a5.823,5.823,0,0,1-5.827,5.826H562.4v11.653h.142l9.379,30.909h11.653Z" transform="translate(4185.76 221.378)"/><path class="a" d="M552.5,209.786V152.8H541.2v73.4h11.369V210.212A.9.9,0,0,1,552.5,209.786Z" transform="translate(4191.896 221.378)"/></g></g></svg>