<?xml version="1.0" encoding="utf-8"?>
<!-- Generator: Adobe Illustrator 21.1.0, SVG Export Plug-In . SVG Version: 6.00 Build 0)  -->
<svg version="1.1" id="圖層_1" xmlns="http://www.w3.org/2000/svg" xmlns:xlink="http://www.w3.org/1999/xlink" x="0px" y="0px"
	 viewBox="0 0 29.1 29.1" style="enable-background:new 0 0 29.1 29.1;" xml:space="preserve">
<path d="M29.1,14.5c0-0.5,0-1-0.1-1.5C28.2,5.7,22.1,0,14.6,0c0,0,0,0-0.1,0C6.5,0,0,6.5,0,14.5c0,0,0,0,0,0C0,22.1,5.7,28.2,13,29
	c0.5,0,1,0.1,1.5,0.1c0.5,0,1,0,1.5-0.1c6.8-0.7,12.3-6.1,13-13C29,15.5,29.1,15,29.1,14.5z M14.5,27.6c-7.2,0-13-5.8-13-13
	c0-7.2,5.8-13,13-13c7.2,0,13,5.8,13,13C27.6,21.7,21.7,27.6,14.5,27.6z"/>
<path d="M22.2,13.5h-6.3V6.8c0-0.6-0.4-1-1-1s-1,0.4-1,1v6.7H6.8c-0.6,0-1,0.4-1,1s0.4,1,1,1h7.1v6.7c0,0.6,0.4,1,1,1s1-0.4,1-1
	v-6.7h6.3c0.6,0,1-0.4,1-1S22.8,13.5,22.2,13.5z"/>
</svg>
