<svg xmlns="http://www.w3.org/2000/svg" viewBox="0 0 246.919 111.368"><defs><style>.a{fill:#fff;}</style></defs><rect class="a" width="13.297" height="5.114" transform="translate(0 10.29)"/><rect class="a" width="5.114" height="47.665" transform="translate(2.046 0.266)"/><path class="a" d="M92.378,37.5H84.195V32.381h8.04a4.672,4.672,0,0,0,.348-1.78v-.1l.286-5.585H71V19.8H98.228L97.7,30.581c0,.8-.1,3.662-1.882,5.482A4.742,4.742,0,0,1,92.378,37.5Z" transform="translate(-56.476 -15.75)"/><path class="a" d="M62.664,22.973,60.7,18.248A16.807,16.807,0,0,0,71.419.716L76.493,0a23.262,23.262,0,0,1-.839,8.981A21.493,21.493,0,0,1,62.664,22.973Z" transform="translate(-48.283)"/><path class="a" d="M68.138,143.8h-4.5v-5.114h4.01a6.03,6.03,0,0,0,.184-1.616v-.1l.327-10.556H57.5V121.3H73.436l-.491,15.629c.041.982-.02,3.785-1.677,5.523A4.241,4.241,0,0,1,68.138,143.8Z" transform="translate(-45.737 -96.486)"/><path class="a" d="M150,143.882h-3.478v-5.114h2.987a6.029,6.029,0,0,0,.184-1.616v-.164l.245-10.474H141V121.4h14.177l-.368,15.629c.041.982-.02,3.805-1.677,5.544A4.361,4.361,0,0,1,150,143.882Z" transform="translate(-112.156 -96.565)"/><path class="a" d="M45.182,137.253,41.5,133.694c5.564-5.728,6.587-14.443,6.649-15l.409-6.2,5.094.327-.409,6.3C53.2,119.578,52.158,130.032,45.182,137.253Z" transform="translate(-33.01 -89.486)"/><path class="a" d="M138.269,131.93,134.3,128.7c1.493-1.841,2.659-7.712,3.007-11.354l.2-5.544,5.114.184-.225,5.789C142.237,119.492,141.255,128.227,138.269,131.93Z" transform="translate(-106.826 -88.929)"/><path class="a" d="M313.311,17.518H281.5V12.4h26.7V8.414H282.523V3.3h30.788Z" transform="translate(-223.913 -2.625)"/><rect class="a" width="18.002" height="5.114" transform="translate(53.904 17.45)"/><rect class="a" width="5.114" height="7.569" transform="translate(60.205 20.007)"/><path class="a" d="M257.5,125.835v-5.114c8.981,0,19.209-.9,19.311-.921l.45,5.094C276.832,124.935,266.706,125.835,257.5,125.835Z" transform="translate(-204.823 -95.292)"/><path class="a" d="M381.843,97.37H362V85.3h19.843Zm-14.729-5.114h9.615V90.414h-9.615Z" transform="translate(-287.946 -67.85)"/><rect class="a" width="42.96" height="5.114" transform="translate(52.779 33.202)"/><path class="a" d="M363.264,169.791l-.164-5.114,6.608-.2c.143-.041.286-.123.409-.634a4.619,4.619,0,0,0,.123-1.289l-.02-.123V153.2h5.114v9c.266,3.335-1.391,6.894-5.094,7.344l-.123.02Z" transform="translate(-288.821 -121.86)"/><path class="a" d="M295.492,202.326a54.619,54.619,0,0,0-6.792-3.7L290.889,194a59.728,59.728,0,0,1,7.733,4.276Z" transform="translate(-229.641 -154.313)"/><path class="a" d="M12.259,322.34l-.859-5.032c3.56-.614,13.461-2.5,16.57-3.907l2.107,4.664C25.8,319.967,13.63,322.094,12.259,322.34Z" transform="translate(-9.068 -249.288)"/><rect class="a" width="41.323" height="5.114" transform="translate(0.409 77.287)"/><path class="a" d="M18.626,377.635H13V372.52h5.339a2.866,2.866,0,0,0,.859-.859,5.207,5.207,0,0,0,.593-2.475V335.8h5.114v33.365a10.4,10.4,0,0,1-1.187,4.889C22.9,375.548,20.815,377.635,18.626,377.635Zm-.409-5.053Z" transform="translate(-10.341 -267.105)"/><path class="a" d="M2.061,437.081,1.1,432.049c8.142-1.555,20.089-7.487,20.191-7.549l2.291,4.582C23.091,429.348,10.9,435.4,2.061,437.081Z" transform="translate(-0.875 -337.66)"/><path class="a" d="M128.307,358.508c-9.267-7.569-11.456-10.781-14.729-21.48C111.1,328.968,111,311.457,111,310.72l5.114-.02c0,.184.1,17.491,2.353,24.835,2.987,9.738,4.582,12.049,13.093,19.025Z" transform="translate(-88.293 -247.14)"/><path class="a" d="M149.969,328.71a87.186,87.186,0,0,0-6.669-6.464l3.375-3.846a89.068,89.068,0,0,1,7.242,7.037Z" transform="translate(-113.985 -253.265)"/><path class="a" d="M88.073,435.3,85.7,430.782c10.781-5.667,18.657-21.419,18.739-21.582l4.582,2.271C108.673,412.187,100.327,428.859,88.073,435.3Z" transform="translate(-68.168 -325.49)"/><path class="a" d="M287.946,324.285,284.1,320.91c.532-.7,1.616-4.276,2.291-7.61l5.012,1C290.933,316.655,289.644,322.342,287.946,324.285Z" transform="translate(-225.982 -249.208)"/><path class="a" d="M276.616,388.987H258V349.3h18.616Zm-13.5-5.114H271.5V354.414h-8.387Z" transform="translate(-205.221 -277.844)"/><rect class="a" width="13.297" height="5.114" transform="translate(55.541 88.027)"/><path class="a" d="M359.914,328.2l-4.214-2.9c1.473-2.148,4.01-9.778,5.278-14.095l4.91,1.432C365.54,313.88,362.328,324.7,359.914,328.2Z" transform="translate(-282.934 -247.538)"/><path class="a" d="M389.788,385.93H380.7v-5.114h8.858c.614-.2,1.862-2.5,2.352-4.746a73.345,73.345,0,0,0,1.575-11.824c.1-3.171.061-10.167.02-13.931H380.5V345.2h18.064l.041,2.516c0,.491.164,12.131,0,16.693a77.854,77.854,0,0,1-1.7,12.745c-.307,1.391-2.087,8.428-7.037,8.735Z" transform="translate(-302.661 -274.582)"/><path class="a" d="M372.744,418.515c-1.718-3.437-7.283-11.006-7.344-11.088l4.112-3.028c.246.327,5.871,8,7.794,11.824Z" transform="translate(-290.65 -321.672)"/><rect class="a" width="35.8" height="5.114" transform="translate(107.706 67.16)"/><rect class="a" width="5.114" height="5.728" transform="translate(122.947 63.99)"/><path class="a" d="M563.126,351.008c-.225-.8-2.168-4.685-3.826-7.835l4.521-2.373a90.3,90.3,0,0,1,4.214,8.8Z" transform="translate(-444.884 -271.082)"/><path class="a" d="M629.287,351.9l-4.787-1.78c.471-1.309,3.723-7.3,4.705-9.124l4.5,2.434C631.721,347.055,629.553,351.188,629.287,351.9Z" transform="translate(-496.746 -271.242)"/><rect class="a" width="41.323" height="5.114" transform="translate(105.149 76.059)"/><path class="a" d="M567.322,415.37H535V403.3h32.322Zm-27.208-5.114h22.094v-1.841H540.114Z" transform="translate(-425.555 -320.797)"/><path class="a" d="M514.828,482.324l-3.928-3.273c1.821-2.189,3.989-7.569,4.664-9.451l4.807,1.739C520.106,472.1,517.549,479.051,514.828,482.324Z" transform="translate(-406.385 -373.534)"/><path class="a" d="M574.936,497.688H564.871c-4.132-.266-5.626-4.3-5.851-6.383l-.02-.143V485.7h5.114v5.114c.062.368.348,1.616,1.043,1.739h9.594a5.207,5.207,0,0,0,2.557-.859,38.112,38.112,0,0,0,2.312-3.437l4.357,2.659a35.673,35.673,0,0,1-3.007,4.337c-2,2.066-5.319,2.373-5.974,2.414Z" transform="translate(-444.645 -386.34)"/><path class="a" d="M604.683,477.694c-.757-1.187-3.662-3.212-5.483-4.275L601.778,469c.9.532,5.523,3.314,7.2,5.953Z" transform="translate(-476.621 -373.057)"/><path class="a" d="M666.237,476.463c-.941-1.412-5.216-4.766-7.937-6.689l2.946-4.173c1.227.859,7.426,5.319,9.247,8.04Z" transform="translate(-523.631 -370.352)"/><rect class="a" width="36.823" height="5.114" transform="translate(159.156 70.638)"/><rect class="a" width="5.114" height="21.275" transform="translate(175.112 64.194)"/><rect class="a" width="29.867" height="5.114" transform="translate(162.633 82.912)"/><path class="a" d="M772.453,475.5l-4.153-2.987c1.739-2.414,2.475-7.815,2.6-9.513l5.094.348C775.951,464.146,775.358,471.469,772.453,475.5Z" transform="translate(-611.129 -368.284)"/><path class="a" d="M829.793,473.109h-8.449c-4.01,0-6.158-3.866-6.444-7.467V454.8h5.114v10.515c.1.818.593,2.68,1.33,2.68h8.367a8.151,8.151,0,0,0,6.567-3.478l4.091,3.069A13.325,13.325,0,0,1,829.793,473.109Z" transform="translate(-648.196 -361.761)"/><path class="a" d="M854.73,447.085c-.982-1.6-4.644-4.46-6.73-5.871L850.885,437c1.043.716,6.362,4.439,8.2,7.426Z" transform="translate(-674.524 -347.603)"/><path class="a" d="M924.187,468.89c-2.209-4.419-7.446-9.1-7.487-9.165l3.4-3.826c.245.225,6.014,5.4,8.674,10.679Z" transform="translate(-729.17 -362.636)"/><path class="a" d="M1056.588,397.532h-9.165v-5.114h9.1a1.118,1.118,0,0,0,.921-.348c1.268-1.248,1.78-4.889,1.759-7.078V365.414H1027.6V360.3h36.7v24.63c.02.88.02,7.549-3.273,10.781A6.287,6.287,0,0,1,1056.588,397.532Z" transform="translate(-817.383 -286.593)"/><path class="a" d="M1007.171,359.972l-2.271-4.582a31.109,31.109,0,0,0,15.977-17.879,33.936,33.936,0,0,0,2.046-11.231V312.9h5.114v13.256a38.765,38.765,0,0,1-2.271,12.888A36.439,36.439,0,0,1,1007.171,359.972Z" transform="translate(-799.327 -248.89)"/><g transform="translate(108.177 9.513)"><path class="a" d="M528.8,53.68V46.5h5.114v7.18Zm0,21.214v-7.18h5.114v7.18Z" transform="translate(-528.8 -46.5)"/></g></svg>