<svg xmlns="http://www.w3.org/2000/svg" viewBox="0 0 35.893 35.893"><defs><style>.a{fill:#efefe8;fill-rule:evenodd;}</style></defs><g transform="translate(-4356.426 -3596.059)"><path class="a" d="M17.947,3.19a55.028,55.028,0,0,1,7.179.2,9.249,9.249,0,0,1,3.39.6,7,7,0,0,1,3.39,3.39,9.249,9.249,0,0,1,.6,3.39c0,1.795.2,2.393.2,7.179a55.028,55.028,0,0,1-.2,7.179,9.249,9.249,0,0,1-.6,3.39,7,7,0,0,1-3.39,3.39,9.249,9.249,0,0,1-3.39.6c-1.795,0-2.393.2-7.179.2a55.028,55.028,0,0,1-7.179-.2,9.249,9.249,0,0,1-3.39-.6,7,7,0,0,1-3.39-3.39,9.249,9.249,0,0,1-.6-3.39c0-1.795-.2-2.393-.2-7.179a55.028,55.028,0,0,1,.2-7.179,9.249,9.249,0,0,1,.6-3.39,7.162,7.162,0,0,1,1.4-1.994,3.371,3.371,0,0,1,1.994-1.4,9.249,9.249,0,0,1,3.39-.6,55.028,55.028,0,0,1,7.179-.2m0-3.19a58.919,58.919,0,0,0-7.378.2A12.311,12.311,0,0,0,6.182,1a7.806,7.806,0,0,0-3.19,1.994A7.806,7.806,0,0,0,1,6.182a9.086,9.086,0,0,0-.8,4.387A58.919,58.919,0,0,0,0,17.947a58.919,58.919,0,0,0,.2,7.378A12.311,12.311,0,0,0,1,29.711,7.806,7.806,0,0,0,2.991,32.9,7.806,7.806,0,0,0,6.182,34.9a12.311,12.311,0,0,0,4.387.8,58.919,58.919,0,0,0,7.378.2,58.919,58.919,0,0,0,7.378-.2,12.311,12.311,0,0,0,4.387-.8A8.366,8.366,0,0,0,34.9,29.711a12.311,12.311,0,0,0,.8-4.387c0-1.994.2-2.592.2-7.378a58.919,58.919,0,0,0-.2-7.378,12.311,12.311,0,0,0-.8-4.387A7.806,7.806,0,0,0,32.9,2.991,7.806,7.806,0,0,0,29.711,1,12.311,12.311,0,0,0,25.325.2,58.919,58.919,0,0,0,17.947,0m0,8.774a9.025,9.025,0,0,0-9.173,9.173,9.173,9.173,0,1,0,9.173-9.173m0,15.155a5.875,5.875,0,0,1-5.982-5.982,5.875,5.875,0,0,1,5.982-5.982,5.875,5.875,0,0,1,5.982,5.982,5.875,5.875,0,0,1-5.982,5.982M27.518,6.182a2.193,2.193,0,1,0,2.193,2.193,2.213,2.213,0,0,0-2.193-2.193" transform="translate(4356.426 3596.059)"/></g></svg>